<svg xmlns="http://www.w3.org/2000/svg" viewBox="0 0 1349.5 519.3"><defs><style>.cls-1{fill:#f9dc3e;}</style></defs><title>icon-babel</title><g id="Layer_2" data-name="Layer 2"><g id="Layer_1-2" data-name="Layer 1"><path class="cls-1" d="M955.7,114.8l.1,1.6,3.3-.3a12.66,12.66,0,0,1,1-4.6l-.3-2.9C958.4,108.7,957,110.8,955.7,114.8Zm-31.6-76-.3-2.9-4.7.4.3,2.9ZM832.4,210.5c-.2-2.7-8.6-13.2-25.2-31.7-.3-3.4,5.4-8.5,17.1-15.2l33.4-29.1c7.5-9.5,11.9-24.9,13.2-46.3l-.4-4.9c-1.3-14.8-12-26.7-32.3-35.8q-18-12.15-64.8-13.4-38.7,3.3-101,27.7a414.65,414.65,0,0,1-39,24.6l.2,2.5a9.28,9.28,0,0,0,3.9-1.7c1.7-.2,2.7.6,2.8,2.2l2.5-1.3L644,88l.1,1.1c.1,1.3-8.9,8.4-27.1,21.1l1.4,2.6-1.2.1-3-1.1c.1.9-1.2,1.5-3.7,1.7l.1,1.1,2.9,3.6a11,11,0,0,1-4.2-1c-4.2.4-8.3,2.6-12.4,6.8l1.7-7.4q9.15-39.45,12.5-69.8l-.3-1.3a50.75,50.75,0,0,1-12.1-11.3,40,40,0,0,0,0-5.3l-.3-1.1-1.2.3q-19.8,29.7-76.3,101.4-43,51-44.4,56.7c-11.7,12.1-17.3,19.4-16.7,21.9-3.1,2-4.4,4-3.9,6.2a1.24,1.24,0,0,1-1.7-1c-5,8.1-12.4,13.3-22.3,15.6l-10.4,2.4c-1.4.3-2.1,1.3-2,3l.3,1.3,3.9-.9.3,1.1-8.8,3.4-15.6,3.6-8.2.5c-1.2,1.2,6.5-.1,3.5.6l-10.2,2.4c-6.2,1.4-9.6.9-10.2-1.6l-1.2.3a5.86,5.86,0,0,1,.1,2.6l-.6-2.5-8.2,1.9q-.9-5.7-33.2-41.4c-.4-4.6,7.2-11.3,22.7-20l43.8-38.5q14.7-18.9,17.5-60.6l-.6-6.5c-1.7-19.6-15.9-35.4-42.6-47.6C356.4,21.7,328,16,287,15.1q-51,4.35-133,36.1a508.33,508.33,0,0,1-51.3,32.4L103,87a13.47,13.47,0,0,0,5.1-2c2.2-.2,3.4.8,3.6,2.8l3.4-1.9,1.7-.1.1,1.6C117,89,105.1,98.3,81,115.3l1.9,3-1.7.1-3.7-1.3c.1,1-1.6,1.7-5.1,2l.2,1.8,4,4.4a14.6,14.6,0,0,1-5.4-1.1c-7.8.7-15.4,6.3-22.9,16.9l1.9,3c6.5-6,10.3-9,11.4-9.1l.4,4.9a16.45,16.45,0,0,0-5.1,2l4.1,6.2a135.5,135.5,0,0,1,26.1-21.9c4.7,1.2,7.2,2.7,7.3,4.3l3.6-.3q38.7-28.65,76.6-41.4l.3,3.4q-7.05,10.5-9.6,10.8a11,11,0,0,0,2.5,6.3q.6,6.45-34.4,86.9Q54.05,383.1,0,472.6a11.55,11.55,0,0,0,2.1,4.8c8.9-2.1,14.5-4.3,16.9-6.4l1.9-.2.3,3.4,3.3-.3,3.4-1.9c.1,1,1.2,1.5,3.5,1.3l.3,3.4c.3,3.3-1.6,8.3-5.6,15.2-3.6,4.1-7.5,12.7-11.6,25.8l.1,1.6,3.3-.3q21.6-24.15,32.8-47.3,63-18.45,96.2-36.3c22.3-1.9,39.3-7.8,50.9-17.5l-.2-1.8-8.4,2.5-1.9.2-.2-1.8c16.4-2.5,27.7-6.1,34-11.1Q269,369,293.4,353.6q50.25-36.9,65.2-71.9c1.8-.4,3.6-.8,5.6-1.3a73.92,73.92,0,0,0,8-.5c-.2-.9.2-1.4,1.1-1.6,7.5-.8,3.9.5,8.7-.6l12.6-2.9,2.1-.5-1,.6a12.3,12.3,0,0,0,4.6-.3l.9,3.7-57.3,91.1-12.7,15.9L325,406.1l1.2-.3,6.2-2.6-2,8.1.6,2.4,1.7,2.1c-.8.2-1.1.7-.9,1.6l.3,1.3,2.6-.6q5.7-5,4.8-9c4.1.7,6.8,1,8.2.6l.3,1.3c-2.5.6-3.8,2.6-4,6l.3,1.3,1.4-.3c20.8-22.7,71.8-100.4,112.7-153.1q-1.95-8.55,64-23.8l1.4-.3q2.4,10.35-10.2,50.1c-5.4,16-8,24.8-7.6,26.2-7,21.3-10.3,32.8-9.9,34.6l-15.6,51.1a466.53,466.53,0,0,0-23.2,82.7,10.14,10.14,0,0,1,4.3.4l2.2-1.9a1.24,1.24,0,0,0,1.7,1l-.9-3.7,6.8-.2c2-.5,3.7-3,5.1-7.6-.3-6.9,1.1-10.6,4.2-11.4,4.2-16.4,6.8-24.6,7.7-24.9q5.85-24.45,8.7-27.9c5.9-21.2,10.2-32.1,13-32.8l.6,2.6-4.3,11.1q-11.25,49.95-22.8,78.9l2.2,9.6,1.4-.3q27.9-60,80.3-237.6c1-10.4,6-18.5,14.9-24.2l-2-2.1-.3-1.1c4-.9,6.8-2.5,8.4-4.7-.2-.9-3.7-2.2-10.5-4l17.4-74.6c3.8-3.4,6-5.2,6.7-5.2l.3,3.8a9.28,9.28,0,0,0-3.9,1.7l3.3,4.7a107,107,0,0,1,19.6-16.8c3.6,1,5.4,2.2,5.6,3.4l2.6-.2q29.7-21.75,58.3-31.2l.2,2.5q-5.25,8-7.2,8.1a10.94,10.94,0,0,0,1.6,4.8q.45,5-25.9,66.1Q596.3,313.55,555.3,381.6a9.28,9.28,0,0,0,1.8,3.7c6.7-1.6,11-3.3,12.7-4.9l1.2-.1.2,2.5,2.8-.2,2.5-1.3q.15,1.05,2.7.9l.2,2.7c.2,2.4-1.2,6.2-4.3,11.4-2.9,3.1-5.9,9.6-9.1,19.5l.1,1.3,2.6-.2q16.35-18.3,24.9-36c31.9-9.4,56.2-18.5,73-27.5,17.1-1.5,30-5.9,38.8-13.3l-.1-1.3-6.5,1.9-1.4.1-.1-1.3c12.4-1.8,21.1-4.6,25.8-8.3,24.2-18.6,42.5-31.9,54.9-39.7C816.6,263.4,834.6,236.4,832.4,210.5Zm-6.6,1.7.9,10.1c-1.2,2.5-2.5,3.8-3.7,3.9L821.5,209C824.3,210,825.7,211,825.8,212.2ZM68.6,130.8l-1.7.1-.3-3.1,6.9-.6.1,1.6A13.27,13.27,0,0,0,68.6,130.8ZM34.9,467.9a21.39,21.39,0,0,0-10.7-2.2l-.4-4.9c-.2-1.9.9-3.2,3.3-3.7,2.2-.2,3.5,1.4,3.7,4.6q8.7-10.65,9.6-10.8l3.7,1.5c-1.2,10-4.3,15.1-9.2,15.5ZM395,91.2c-1.7.2-5.1-5.1-10-15.6l-.3-3.1c3.2-.3,6.5,4.9,10,15.6Zm-4.8-37.3-1.4,3.3L339.9,36.8q48.9,1.65,50.3,17.1ZM183.7,231.2l-6.9.6-.3-3.1,6.9-.6Zm-5.6-106.5,1.7-.1.4,4.9c-1.6.1-3.7,2.5-6.3,7.1l-.3-3.4c3.1-3.7,4.7-6.5,4.5-8.5Zm-14.5,34.2.6,6.5-1.7.1-.6-6.5ZM156,171.1l3.3-.3c-.3,5.4-1.8,8.3-4.5,8.5l-1.7.1c2.1-3.6,3.1-6.4,2.9-8.3Zm-5.7,17,1.9-.2.1,1.6-3.1,5.2-3.3.3-.1-1.6C149.1,193.1,150.6,191.4,150.3,188.1Zm-5.6,15.3-1,8.2-1.7.1-.7-8.1,3.4-.2ZM88.6,362.9c-2.2,11.2-4.6,16.9-7.1,17.1l-.1-1.6c-.6-5.5,1.8-10.7,7.2-15.5ZM78.3,385.2l.1,1.6c.2,2.2-.8,3.5-3,3.6l-.1-1.6Q75,385.95,78.3,385.2Zm-3,46.3,5.2-.5.2,1.8a13.47,13.47,0,0,0-5.1,2l-3.3.3c-.2-1.7.9-3,3-3.6Zm148-45.7q-43.8,21.6-51.5,29.3-47.4,16.5-47,20.5C96.7,446.7,78.2,454.9,69.3,460c-2.1.2-5.1-.6-9.1-2.4-.5-5.7,2.1-10.3,7.6-14a29.52,29.52,0,0,1,14.1,2.2c5.2-2.7,14.3-5.7,27.2-8.9l-.3-3.4-10.4.9c1.3-1.8,11.3-6.5,30.1-14.1l5.2-.5.1,1.6c-8.9.8-13.8,3.4-14.9,8.1.2,2.1,1.4,3,3.6,2.8,6.7-4.2,10-6.7,9.9-7.4q19-3.6,105.3-55.1l.3,3.1c.1,1.5-4.8,5.7-14.7,12.9Zm-88.2,29a34,34,0,0,0,21.6-10c2.4-.2,3.7.7,3.8,2.8-4.1.4-12,3.8-23.5,10.4l-1.7.1-.2-3.3ZM277.4,305.5l-44.1,35c-32.8,21.5-50.4,32.3-53,32.5q-78.3,43-97.3,44.7l-1.9.2q2.4-8.85,69.8-142.8,29.7-2.55,93.5-27.7l10.4-.9c21.5-1.9,37.6,2.3,48.2,12.3l.6,6.5c-7.9,22.9-16.7,36.3-26.2,40.2ZM191.2,257l7.1-.6.1,1.6-7.1.6Zm99.7-16.9,5.2-.5c4.8,2.3,7.3,4.3,7.5,6.1l.1,1.6c-4.6.4-8.9-2-12.8-7.2ZM305,159.8q-6.9,8.25-37.8,28.1c-6.8.6-32.1,10.4-75.9,29.6a13.86,13.86,0,0,0-7-1.2l-.3-3.1c-.5-6.3,2.3-14.2,8.5-23.8,3.4-18,7.1-28.3,11.2-30.8l36.5-82.1q-.6-7.65,23.4-11.7l5.2-.5.4,4.7c15.7-2.4,25.5-3.8,29.3-4.1,29-2.5,44.1,3.4,45.3,17.5l3.3-.3-.7-8.3,3.6-.3c8.5,4.7,13.1,10.4,13.7,17.1.4,4.6-2.1,10.3-7.4,17.1-2.2.2-3.5-1.4-3.7-4.6l-3.6.3-.8,10q-22.05,33-32,33.9C310.2,155.6,306.5,159.7,305,159.8Zm22.4,57.5c-3-2-5.4-2.9-7.2-2.8l-.4-4.9,3.3-.3,7.3,4.3c.3,2.3-.7,3.5-3,3.7Zm23.2,27.5c3.2,1.3,5.1,2.7,5.5,4l-1.6.4.1.1a3.55,3.55,0,0,0-1,.2l-2.4,1.9Zm2.2,13.8-.3-1.3,4.2-1,.3,1.3Zm10.1,11.3c4.3-.7,6.4-1,14.4-2.8l.3,1.3-15.2,3.5a19.45,19.45,0,0,0,.5-2Zm14.8,6.3c-6.4.6-5-.2-15.2,2.1l-.3-1.3,12.8-4.1,6.1-1.4.6,2.4c-2.8.6-.8.6-4,2.3Zm13.5-3.2c-1.5.4-2.7-.3-3.4-2l3.9-.9a2.38,2.38,0,0,1,3.2,2Zm36.6-39.4-.3-1.3,6.3-1.5.6,2.4Zm39.1,239.8a9.89,9.89,0,0,0,.3-4l1.4-.3c1.7-.4,2.7.2,3.1,1.8l.3,1.3Zm27.4-229.5-2.8-.5a79.35,79.35,0,0,1-11.4,3.8l-2.6.6a2.56,2.56,0,0,1-3.3-1.8l18.3-4.2,6-2.8,2,2.3C497.6,241.9,495.5,242.8,494.3,243.9Zm14.1-4.5-.3-1.3a7.65,7.65,0,0,0,3.4-2.2l13-3,.3,1.3A100.27,100.27,0,0,0,508.4,239.4Zm2-26.3a10.72,10.72,0,0,0-3.6,2.2c-.2-.9-2-.9-5.4-.1-.6-2.5,9-6,28.9-10.6l2.8-.6.6,2.4C519.7,210.5,511.9,212.8,510.4,213.1Zm35-37.8c-1.4,15.9-7,24.9-16.9,27.2l-.3-1.3-8.8,3.4-3.9.9a9.82,9.82,0,0,1-5.4-.1l-.8-3.5q-.45-2,38.2-52.7l3,.5C551.6,154.3,549.9,162.8,545.4,175.3Zm61.9-53-1.2.1-.2-2.5,5.2-.5.1,1.3a16.74,16.74,0,0,0-3.9,1.6ZM581.8,378.4a16.05,16.05,0,0,0-8-1.8l-.3-3.8q-.15-1.95,2.4-2.7c1.7-.2,2.7,1,2.9,3.6,4.3-5.5,6.7-8.3,7.2-8.3l2.7,1.1c-1,7.6-3.3,11.6-6.9,11.9Zm273.4-286c-1.3.1-3.8-3.9-7.7-12l-.2-2.5c2.5-.2,5.1,3.7,7.7,11.7Zm-3.6-28.6-1.2,2.6-37-15.5C838.1,51.7,850.9,56,851.6,63.8ZM694.7,198.5l-5.2.5-.2-2.5,5.2-.5Zm-4.3-80.9,1.4-.1.3,3.8q-2,.15-4.8,5.4l-.2-2.5q3.45-4.35,3.3-6.6Zm-10.9,26,.4,4.9-1.4.1-.4-4.9Zm-5.9,9.3,2.6-.2q-.45,6.3-3.3,6.6l-1.4.1c1.5-2.8,2.2-5,2.1-6.5Zm-4.2,12.8,1.2-.1.1,1.3-2.3,4-2.6.2-.1-1.3c2.7-.2,3.9-1.6,3.7-4.1Zm-4.2,11.6-.9,6.4-1.2.1-.5-6.3,2.6-.2ZM622.5,298.6q-2.55,12.6-5.4,12.9l-.1-1.1C616.7,306.2,618.5,302.2,622.5,298.6Zm-7.9,16.9.1,1.1c.2,1.8-.6,2.8-2.4,2.9l-.1-1.3Q612.05,316.25,614.6,315.5Zm-2.2,35.2,4-.3.1,1.3a11.51,11.51,0,0,0-3.9,1.5l-2.6.2Q609.85,351.3,612.4,350.7ZM724.7,316q-33,16.35-39.2,22.1c-24,8.4-35.9,13.6-35.7,15.7-21.3,8.5-35.3,14.6-41.9,18.5-1.6.1-3.9-.5-6.9-1.9-.4-4.3,1.6-7.8,5.8-10.4a22.55,22.55,0,0,1,10.7,1.6c4-2,10.9-4.2,20.7-6.7l-.2-2.5-8.1.7c1-1.4,8.7-5,23-10.8l4-.3.1,1.1c-6.8.6-10.6,2.6-11.4,6.2.1,1.6,1.1,2.4,2.8,2.2,5-3.3,7.4-5.2,7.4-5.8q14.4-2.55,79.9-41.9l.2,2.5c0,1-3.7,4.2-11.2,9.7Zm-67,22a26.85,26.85,0,0,0,16.6-7.5c1.7-.1,2.7.6,2.8,2.2-3,.3-8.9,2.8-17.8,7.6l-1.4.1-.2-2.4Zm108.2-83.1-33.3,26.8q-37.35,24.45-40.5,24.7-59.4,32.7-73.9,33.9l-1.4.1q1.8-6.75,53.1-108.4,22.35-2,70.9-21.2l8.1-.7c16.3-1.4,28.5,1.8,36.5,9.5l.4,4.9c-6.1,17.2-12.7,27.3-19.9,30.4Zm-65.4-36.8,5.2-.5.1,1.3-5.2.5Zm75.7-12.9,4-.3c3.7,1.8,5.6,3.4,5.7,4.7l.1,1.1c-3.5.3-6.8-1.5-9.8-5.5Zm10.5-60.9c-3.5,4.2-13,11.4-28.5,21.4q-7.8.75-57.6,22.3a13.12,13.12,0,0,0-5.3-.7l-.2-2.5c-.4-4.8,1.7-10.8,6.3-18.1,2.6-13.8,5.5-21.5,8.5-23.3L737.8,81c-.3-3.7,5.6-6.7,17.6-9l4-.3.3,3.8q17.7-2.85,22.2-3.3c22-1.9,33.5,2.5,34.4,13.3l2.6-.2-.5-6,2.6-.2c6.4,3.5,9.8,7.7,10.2,12.7.3,3.6-1.5,8-5.3,13.1-1.7.2-2.7-1-2.9-3.6l-2.6.2-.8,7.5c-11.1,16.9-19.2,25.6-24.3,26-4.5,6.1-7.3,9.2-8.6,9.3Zm11.7,41.6-.3-3.8,2.6-.2,5.6,3.4q.15,2.4-2.4,2.7c-2.4-1.5-4.2-2.2-5.5-2.1ZM332.9,428.8l-2.6.6-2.2,1.9c.4,1.6,1.4,2.2,3.1,1.8s2.4-1.4,2-3ZM323,409.1l.3,1.3c1.7-.4,2.4-1.4,2-3l-.3-1.3A2.35,2.35,0,0,0,323,409.1Zm70.8-133,1.9-1.2a3,3,0,0,1-1-.2,1.16,1.16,0,0,0-.9,1.4Zm-.4-34.5,3-.7-.6-2.6-3,.7Zm706.7,101-6.8-.8-1.2,2.6.1,1.3,40.5-3.4-.2-2.5Zm37-3.1.2,2.5h.4l-.2-2.5ZM1307,317.3l.2,2.5,4.4.8-.2-2.5Zm-6.2.5c-30.4,6.8-34.2,5.6-40.6,6.1l.2,2.5,2.8-.2,1.5-.1-.4-.3,3.3-1.3c30.1-3.3,33.6-2.1,33.3-5.5l-.1-1.2Zm-182.5-44.2-2.7-.9c-2.2,5.9-3.3,9.4-3.2,10.4l.1,1.1c2.1-.1,4-3.7,5.8-10.6Zm-36.6-19.7-.1-1.3-1.4.1-2.5,1.6,1.4,2.4c1.9-.2,2.8-1.1,2.6-2.8Zm79.5,82.2-.2-2.5-.8.1.2,2.5Zm165-37.2,1.9-.2c1.1-.1,1.6-1,1.5-2.6l-1.1-2.4c-6.9.6-10.1.9-15.7,4l-.1-1.3-8.3.8c-.2-2.5-.9-3.8-2-3.7l-4.3.4c-5,.4-7.4.2-9.9,2.1-.1-.9-.4-1.3-.9-1.3l-4.8.4-2.8,1.6c-.1-.9-.4-1.3-.9-1.3l-1.7,1.5-.1-1.3-6.7-.5-1.6.1.2,2.5,3.4.9,3.2-.2a5.81,5.81,0,0,0,3.7.8l2.8-1.4.1,1.1c-15.7,3.9-15.6,3.2-26.4,5a4.55,4.55,0,0,0-2.7-1.1l-.2.2a2.12,2.12,0,0,1-2-2.2l5.6-.7a34.79,34.79,0,0,0,3.8,1c4.5-2.2,4.7-3.1,7.1-3.3l-.2-2.5c-15.4,3-9.2,1-28.5,2.7l-.9.1-.2-2.5c24.8-3,16.5-1.3,25-3.7.1.9.4,1.3.9,1.3a5.83,5.83,0,0,1,3.4-1.7l1.7-.1c8.7-.7,11.6,1,28.8-3.8l.1,1.1,2.8-1.4,2.6-.2c-.2-2.5,3.6-2.9,4.9-3l-.2-2.7c-30.2,6.1-38.1,4.4-46.5,6.8l-.1-1.1c-7.9,1.4-8.2.8-10.2.9a5.29,5.29,0,0,0-2.5,1.6c-.1-.9-.4-1.3-1-1.3a2,2,0,0,0-.5.1l-25.6,4.2c-.1-.7-.4-1.1-1-1-13.3,2.8-9.7,3.3-27.5,4.9a8.35,8.35,0,0,0-3.3,1.4c-.1-.7-.5-1.1-1.4-1l-10.9.9-7.3,1.8c-.1-.7-.5-1.1-1.4-1a58.21,58.21,0,0,1-10.6,2h-.2c-1.8.2.9-.5-.5-1.1l-2.2,1.3c-3.2.3-1.5-.2-12.5-.1-19.3,2.4-17.2,2.7-19.3,2.8l-7.2-.5a1,1,0,0,1-1.1,1.2c-8.2-1.1-12.4-2.4-12.5-3.9q1.65-11.7,5.7-12l1.4-.1-1.2,2.6,1.4-.1c2.6-1.4,3.8-2.7,3.7-3.9l-.2-2.7-2.6.2-.2-2.5a9,9,0,0,1,.8-5l5.9-9.5.2,2.5,2.8-.2-.2-2.5-1.6-2.3c2.1-1.8,3.7-2.8,5-2.9l-.1-1.3-3.8.3-.3-3.8c7.6-15.8,11.2-25,11-27.6l2.7,1.1c1.7-.1,2.5-1.1,2.4-2.9l-2.6.2-.1-1.1a9.53,9.53,0,0,1,1-5.3c4.1-4.3,6-8.6,5.6-13.1.8-.1,1.2.3,1.3,1.2,3.5-2,6.2-7.3,8.2-16.1q9.3-16.8,26.5-67.1c22-59.2,21.1-65.5,24.2-79.5l-2.6.2a9,9,0,0,1-1,5.1,10.3,10.3,0,0,0-4.2-1l-.1-1.1c-.4-5.1,1.7-11.2,6.5-18.4l1.2-.1,2.2,8.6,2.6-.2c-.1-.6.6-4,2-10.3-.1-1.3-1.1-2.1-3.1-2.2l-2.5,1.6c-.2-1.8-.1-6.5.2-14l-1.3.1c-2.2-2.2-3.3-4-3.4-5.5l-14.3,1.4a13.22,13.22,0,0,0-1.6-4.4c-.1-1.3,3.1-2.6,9.7-3.9l2.9,1.1,2.7-1.6c.1.9.6,1.3,1.6,1.2l2.7-1.6c.1.9.6,1.3,1.6,1.2l1.3-.1L1202,.1c-2,.2-7.3.2-15.7-.1l-2.7,1.8-.1-1.6q-100.65,8.25-114.3,9.5c-1.2.1-5.9,0-14.2-.2.1,1.1-.9,1.7-2.9,1.9l-2.9-1.3-9.8,2.5a64.87,64.87,0,0,1-11.6-.5,10,10,0,0,1-5.5,2.1c-1.2.1,14.3-.8,28.7-1.8-1.5,1.2-3.8,1.9-7,2.2a9.6,9.6,0,0,1-5.7-1c-2.2,1-9.3,2.6-21.2,5l-2.9-1.1-46.8,7.2a11.68,11.68,0,0,0-6.3-1,77.83,77.83,0,0,0-12.5,2.7L926,35.8l1.7,2.8a12.48,12.48,0,0,0,4.6-1.8l8,.7-1,7.5c-7.4,3.3-11.7,8.2-12.9,14.4-11.1,4.9-16.6,8.4-16.6,10.5l.1,1.3,1.7-.1,3-1.6,3.5,4.2.5,5.8q.3,2.7-55.9,117.9c-32.4,74-49.4,114.5-51,121.8-11.1,3.1-17.5,7.6-19.4,13.6.2,1.9,3.5,3.2,9.9,3.7l.3,2.9-2.9,4.8.5,5.8q.45,4.5,24.3,6.9c-.1-1,.4-1.6,1.5-1.7q.45,5.4-3,21l1.7-.1c6.6-9,9.7-15.2,9.4-18.6l1.4-.1c1.6-.1,3.3,1.7,5.3,5.6q-3,1.2-21,47.8l1.7,2.8,1.7-.1q22-55.8,27.7-61.7,29-2.55,100.1-10.2l3-1.8a1.45,1.45,0,0,0,1.8,1.4l3.1-.3,3-1.8a1.45,1.45,0,0,0,1.8,1.4l35.9-3.1c9.5-.8,14-3.7,13.6-8.6-.1-1.3,5.5-2.8,16.8-4.4a13.71,13.71,0,0,1,4.9.9c-.1-.9,5.6-1.8,17-2.8.3-6,2.2-9.2,5.6-9.5l-.3-2.9a49.68,49.68,0,0,0-11,2.5c-7.5-.4-12.3-1-14.3-1.7a13.15,13.15,0,0,1-4.6,1.8l-25,.8-3,1.6q-.15-1.35-1.8-1.2l-1.4.1-3.2,1.6c-.1-.9-2.7-1.6-7.9-2.3l-3.2,1.9-6.2.5-.1-1.6q48.3-5.25,47.7-13.1c2.1-.2,3.2.8,3.4,2.9l9.4-2.4-.3-2.9-77.1,2.1c.1,1-.4,1.6-1.5,1.7l-9.4-.8a11.35,11.35,0,0,0-6,2.1l-3.5-1.3c-9.7.8-16.9,2-21.7,3.5a136.67,136.67,0,0,0-22,.3l-17.3,1.5-8-.9c-.4-5.1,9.5-30.2,29.9-75.2,5.9-15.2,11.3-24.7,16.5-28.3a11.65,11.65,0,0,1,4.9,1.2l12.3-4.2,6.3,1c10.6-.9,22.9-3.9,37-9.1,3.5-.3,6.1-.1,8,.7l9.4-2.2,28-2.4a185.71,185.71,0,0,0,38.8-7.9l-.3-2.9c-5.2.5-7.9-.4-8.1-2.5-.3-3.9-4.1-5.5-11.4-4.9l-.3-2.9,7.7-2.2,20.2-1.7-.3-2.9c-.8.1-4.9,0-12.5-.3l-.3-3.1,7.8-.7c2.1-.2,3-1.2,2.8-3.2-10.5.3-15.8-.2-15.9-1.6q-109.8,5.4-110.1,2a12.57,12.57,0,0,0-4.6,2l-1.9-3q29.1-61.8,34.1-62.3c.1,1.6-.7,4.2-2.4,7.7l.1,1.3,3.1-.3c7.7-18.4,14.2-27.9,19.6-28.3,23-2-3.2-3.5,46-11.2a9.62,9.62,0,0,0,4.4,1.2q28.95-5.85,80.7-12.2l-.2-2.9L1100,47.2l-.2-2.9a10,10,0,0,0,5.5-2.1l.1,1.6a10.83,10.83,0,0,0,4.2-2c3.2-.3,5.6,0,7.3.9a106.25,106.25,0,0,1,15.4-3.1l11.5-1.1c2.8-1.8,4.1-3.4,4-4.9l-.1-1.3a36.3,36.3,0,0,1-10.1-.6c-.1-1.6.7-2.7,2.6-3.2l21.4-2,9.8-2.5c.1,1.1.6,1.5,1.4,1.5a10.83,10.83,0,0,0,4.2-2c.5.1,1.1.1,1.6.2a79.45,79.45,0,0,0-4.3,11.7l-2.8.2a12.23,12.23,0,0,0-1.6-5.1l-1.4.1c-26,72.4-37.6,106.1-61.6,161.7-4.4,14.2-8.1,22.1-11.3,23.8.1,1.6,1.1,2.4,2.8,2.2a34.89,34.89,0,0,1-4.9,20.7c-11.1,32-18.5,49.5-22.3,52.7l2.5,15.1q.15,2.4-2.4,2.7l-2.6.2c-.4-4.2-1.9-6.2-4.6-5.9l-1.4.1a59.53,59.53,0,0,0-7.7,18.5l2.6-.2q5.25-3.45,4.8-8.1l5.2-.5,3,1.1c-2.4,3.8-3.5,6.8-3.3,9.1l1.4,2.4-3.4,8,.1,1.3c3-.3,6.3.7,9.8,2.8a17.55,17.55,0,0,0,7.9-3.2c3-.3,14.2-.4,33.5-.4l9.7-3.3c11.8-.1,13.7.2,23.9-.7l4.2-.4,2.2-1.5.1,1.3c10.7-.9,11.4-.2,19.8.8l.1,1.3-5.9.5.2,2.5a8.47,8.47,0,0,0,4.7-1.8c1.5-.1,2.4.7,2.5,2.5a35.22,35.22,0,0,0-8.1,1.8l-2.6-.9c-4.1,1.1-3.2,1.4-6,1.6l-4.1-.8a1,1,0,0,1-1,1.2,2.16,2.16,0,0,0,2.5,2.3l4.2-.4,21.9-1.9,8.3-1.8c.1.7.4,1.1,1.1,1l4-1.5,7.5-.6c5.8-.5,5.7-.9,18.3-2.9-.1-.8.2-1.1.8-1.2l.1,1.1c20.5-3.5,21.8-3.7,25.1-4.8l.3.6c5.1-1.2,2.2-.9,3.6-1.9.1.9.4,1.3.9,1.3l3.6-.3-.2-2.7-7.3-.1-.1-.2c-.3.1-.5.1-.8.2h-1v.2c-4.9,1-5,.3-8.2.6l-18.3,1-.1-1.3,10.2-1.4,3.7-.3,2.1-1.5.1,1.3c14.4-1.2,19.5,2.4,86.1-11.8,3.6-.3,3.3-3.3,5.6-9.5a6.23,6.23,0,0,1-3.5-.8c-5.5,2.1-8.4,1.1-19,2.8-.9.1-1.6-.7-1.9-2.3l-.1-1.1,10.2.3a25.78,25.78,0,0,0,11.1-3.6c0,.9-2.1,1.4-.9,1.3Zm-492.4,7.9-4.7.4c-.2-1.9,2.3-9.1,7.5-21.4l3.1-.3c.1,2.9-1.8,10-5.9,21.3Zm5.7-22.8-.1-1.3c-.1-1.6.9-2.7,3.1-3.2l.1,1.3C842.7,282.7,841.7,283.8,839.5,284ZM902,332.3l.1,1.3-7.8.7-.1-1.3Zm-9.4-.8c.1,1.6-2.3,3.4-7.5,5.2l-9.6-.7-3.1.3-.3-2.9,20.5-1.9ZM955.8,40.6l-4.7.4-.1-1.6c-.1-1.6.8-2.7,2.8-3.2l1.7-.1,3.2,1.3c.1,1.9-.8,3-2.9,3.2Zm71.5-14,1.5-.1.2,2.9-4.3.4c-.1-1.6.7-2.7,2.6-3.2Zm-18,6.3-7.1-.8-.1-1.3a76.72,76.72,0,0,0,18.1-3.4c.1,1.1,1.1,1.5,2.9,1.3l.2,2.9-2.8.3a9.6,9.6,0,0,1-5.7-1A12.22,12.22,0,0,1,1009.3,32.9Zm8.9,25.9-.1-1.3,11.5-1.1.1,1.3Zm12.3-10-.1-1.6,5.6-.5.1,1.6Zm1.3-19.6-1.5.1,1.3-3.1,12.8-1.2.1,1.6a77.27,77.27,0,0,0-12.7,2.6Zm6.5,27.6-.2-2.9,5.6-.5q2.85-.3,3,2.7Zm33.9-46.2-7.2,2-1.3.1a73.66,73.66,0,0,1-13-.3C1060,11.8,1068.9,11.1,1072.2,10.6Zm-7.7,32,.1,1.3-9.9.9-.1-1.3Zm16.2,7.7c-.1-1.2-2-2-5.9-2.4l-9.9,2.8-7.6.3c-1.7-1.2-2.6-2-2.7-2.6l8.8.5,19.8-3.2,10.1.4.1,1.6a56.63,56.63,0,0,0-12.7,2.6ZM1182.6,24c1.2.1,2,.1,2.3.1a38.36,38.36,0,0,1,11.9-8c-3.6,15.8-9.2,27.5-16.9,35.1l-5.6-3.4c4.7-11.9,7.5-19.8,8.3-23.8Zm-17.2,29.5,1.4-.1c-1.9,3.6-3.6,5.5-5,5.6l-.3-3.8A8.53,8.53,0,0,0,1165.4,53.5ZM1154.3,80c2.7-10.8,5.3-16.9,7.7-18.5l.1,1.3c-1.4,10-3.6,15.3-6.5,15.7l.5,6.3c-2.4,3.4-3.5,6-3.4,8l-1.4.1-.8-8.7c1.6-.2,2.9-1.6,3.8-4.2ZM1150,94.4c.1,1.5-.9,5-2.9,10.4l-1.4.1-.3-3.8c1.9-4.4,3.5-6.6,4.6-6.7Zm-80.7,234.2-.1-1.1,2.6-.2.3,3.8c-1.4.1-2.4-.7-2.8-2.5Zm115.3,3c-.1-.9-.5-1.3-1.4-1.2l-6.5.6-.1-1.3h.6l15.4-1.3.1,1.3C1188.2,329.9,1185.5,330.6,1184.6,331.6Zm-7.7-3.2c.6.3.3.6,0,.8C1176.6,329.1,1176.2,328.8,1176.9,328.4Zm.8-18-8.6.7-.1-1.3,7.8-.7,6.8-1.7c.1.8.5,1.1,1.4,1,8.1-1.4,7.3-1.8,11.2-2.1,1.3-.1,2.1.7,2.2,2.3l-20.7,1.8Zm30.1-2.6c-4.8-.5-5.1-.9-8.5-.6l-.1-1.1,7.7-.7.1,1.1c-.8.1,2.1.3.8,1.3Zm.6-1.4-.1-1.1,4.2-.4.1,1.1Zm9.3-.8-.1-1.1a7.3,7.3,0,0,0,3-1.6,3,3,0,0,1,3.4,2.8l-6.3-.1Zm11.9-1.5-.1-1.3,5.1-.4.1,1.3Zm7.1-.6c-.1-1.5.5-2.4,1.8-2.6l1.7,2.2a.93.93,0,0,1,.8-1.2l1.3,2.4-5.6-.8Zm98.4-11.6.1-.1v-.1A.35.35,0,0,0,1335.1,291.9Zm1.8-1.3c.8-.5,1.2-1-.7-1.3-.9,1,1,1.3-1,1.4l.1.9c.2-.2.7-.5,1.1-.8l-1.1.9v.1l-2.1,2.7,4.2-1.5h.5l-.2-2.5-.8.1Zm7.3,5.7-.8.1.2,2.5,5.9-.5c-.1-1.6-4-2.1-5.3-2.1Z"/></g></g></svg>