<svg xmlns="http://www.w3.org/2000/svg" viewBox="0 0 300 300"><defs><style>.cls-1{fill:#6332f6;}.cls-2{fill:#fff;}</style></defs><title>icon-swiper</title><g id="Layer_2" data-name="Layer 2"><g id="Layer_1-2" data-name="Layer 1"><circle class="cls-1" cx="150" cy="150" r="150"/><path class="cls-2" d="M190.2,200.9a29,29,0,0,0-3.15-14,36.94,36.94,0,0,0-8.55-10.5,62.49,62.49,0,0,0-12.9-8.4q-7.5-3.75-16.2-8-10.2-4.8-20.55-10.2a94.9,94.9,0,0,1-18.6-12.6A59.4,59.4,0,0,1,96.9,120.65q-5.1-9.45-5.1-22.05a58.74,58.74,0,0,1,3.9-20.85A55.93,55.93,0,0,1,107.1,59.3a57.54,57.54,0,0,1,18.75-13.2Q137.1,41,152.1,41a70.89,70.89,0,0,1,20.55,2.85A74.76,74.76,0,0,1,189.6,51.2a75.79,75.79,0,0,1,13.2,9.9,71.57,71.57,0,0,1,9.3,10.5L193.2,86.9a52.15,52.15,0,0,0-6.75-7.8,51.63,51.63,0,0,0-9.3-7A52.55,52.55,0,0,0,165.6,67a45.42,45.42,0,0,0-13.5-2A39,39,0,0,0,137,67.7,33.65,33.65,0,0,0,126,74.9a29.44,29.44,0,0,0-6.75,10.35A32.77,32.77,0,0,0,117,97.1a25.06,25.06,0,0,0,3.3,13.05,38.81,38.81,0,0,0,9.3,10.35,89,89,0,0,0,14.7,9.3q8.7,4.5,19.5,9.3a209.06,209.06,0,0,1,21.75,11.25,81.77,81.77,0,0,1,16.5,12.75,48.86,48.86,0,0,1,10.35,15.6,53.11,53.11,0,0,1,3.6,20.4,59.45,59.45,0,0,1-4.95,24.75,54.11,54.11,0,0,1-13.65,18.6,60.22,60.22,0,0,1-20.55,11.7,77.86,77.86,0,0,1-25.35,4,73.79,73.79,0,0,1-24.3-3.75,72.53,72.53,0,0,1-19.2-9.9,68.85,68.85,0,0,1-14.4-14.1,82,82,0,0,1-9.6-16l21-12.6a59.88,59.88,0,0,0,7,12.15,54.75,54.75,0,0,0,10,10.35,47.08,47.08,0,0,0,13.05,7.2,46.21,46.21,0,0,0,16,2.7,50.7,50.7,0,0,0,14.55-2.1,37.49,37.49,0,0,0,12.45-6.3,32.29,32.29,0,0,0,8.7-10.35A30.35,30.35,0,0,0,190.2,200.9Z"/></g></g></svg>