<svg xmlns="http://www.w3.org/2000/svg" viewBox="0 0 438.86 512"><title>icon-prettier</title><g id="Layer_2" data-name="Layer 2"><g id="Layer_1-2" data-name="Layer 1"><path d="M304.8,24.38H12.15C-4.41,23.63-3.68.13,12.15,0H304.8C320.72.24,321.28,23.57,304.8,24.38ZM12.14,121.9c-16.55-.75-15.82-24.24,0-24.38H182.9c15.91.24,16.48,23.57,0,24.38ZM134.05,73.14c-16.55-.75-15.83-24.24,0-24.38H378c15.91.24,16.48,23.57,0,24.38ZM329.19,97.52c15.9.24,16.47,23.57,0,24.38H231.57c-16.55-.75-15.83-24.24,0-24.38Zm48.67,24.38c-16.55-.75-15.83-24.24,0-24.38h24.47c15.91.24,16.48,23.57,0,24.38ZM12.14,170.67c-16.55-.76-15.82-24.25,0-24.38H61c15.91.24,16.47,23.56,0,24.38Zm292.57,0c-16.55-.76-15.82-24.25,0-24.38h122c15.91.24,16.48,23.56,0,24.38Zm-195,0c-16.55-.76-15.83-24.25,0-24.38h24.47c15.91.24,16.48,23.56,0,24.38ZM12.14,463.24c-16.55-.75-15.82-24.25,0-24.38H61c15.91.24,16.47,23.56,0,24.38Zm97.53,0c-16.55-.75-15.83-24.25,0-24.38h24.47c15.91.24,16.48,23.56,0,24.38Zm195-243.81c-16.55-.75-15.82-24.25,0-24.38h122c15.91.24,16.48,23.56,0,24.38Zm-292.57,0c-16.55-.75-15.82-24.25,0-24.38h122c15.91.24,16.48,23.56,0,24.38Zm0,195.05c-16.55-.76-15.82-24.25,0-24.38h122c15.91.24,16.48,23.56,0,24.38Zm0,97.52c-16.55-.75-15.82-24.25,0-24.38h122c15.91.24,16.48,23.56,0,24.38Zm0-243.81c-16.55-.75-15.82-24.25,0-24.38H36.62c15.9.24,16.47,23.56,0,24.38Zm73.14,0c-16.54-.75-15.82-24.25,0-24.38h73.24c15.91.24,16.48,23.56,0,24.38Zm121.91,0c-16.55-.75-15.83-24.25,0-24.38H402.33c15.91.24,16.48,23.56,0,24.38ZM304.71,317c-16.55-.75-15.82-24.24,0-24.38H378c15.91.24,16.48,23.57,0,24.38Zm-146.28,0c-16.55-.75-15.83-24.24,0-24.38h97.62c15.9.24,16.47,23.57,0,24.38ZM12.14,317c-16.55-.75-15.82-24.24,0-24.38h97.62c15.91.24,16.48,23.57,0,24.38Zm0,48.76c-16.55-.75-15.82-24.24,0-24.38H36.62c15.9.24,16.47,23.57,0,24.38Zm73.14,0c-16.54-.75-15.82-24.24,0-24.38H304.81c15.9.24,16.47,23.57,0,24.38ZM12.14,73.14c-16.55-.75-15.82-24.24,0-24.38H85.33c16,.24,16.54,23.57,0,24.38Z"/></g></g></svg>