<svg xmlns="http://www.w3.org/2000/svg" viewBox="0 0 470.25 428.32"><defs><style>.cls-1{fill:#8ed6fb;}.cls-2{fill:#1c78c0;}.cls-3{fill:#cf649a;}</style></defs><title>icon-sass-loader</title><g id="Layer_2" data-name="Layer 2"><g id="Layer_1-2" data-name="Layer 1"><path class="cls-1" d="M462.77,207.74l-109.25,61.8V221.42L421.58,184Zm7.48-6.77V71.76l-40,23.1v83.07Zm-235.56,6.77,109.23,61.8V221.42L275.82,184ZM227.21,201V71.76l40,23.1v83.07Zm4.68-137.6L343.92,0V46.51L271.57,86.34Zm233.66,0L353.52,0V46.51l72.36,39.78Z"/><path class="cls-2" d="M343.92,212.57l-67.16-36.95V102.47l67.16,38.78Zm9.6,0,67.18-36.92V102.46l-67.18,38.79ZM281.3,94,348.72,57,416.14,94l-67.42,38.91Z"/><path class="cls-3" d="M288.46,321.38a69.07,69.07,0,0,0-30.37,7.07c-3.14-6.22-6.28-11.65-6.81-15.71-.59-4.71-1.31-7.59-.59-13.22s4-13.61,4-14.27-.72-3.47-7.47-3.53S234.66,283,234,284.79a76.1,76.1,0,0,0-2.81,10c-1.18,6.15-13.48,27.95-20.49,39.4-2.29-4.45-4.25-8.38-4.65-11.52-.58-4.71-1.3-7.59-.58-13.22s4-13.62,4-14.27-.72-3.47-7.46-3.53-12.57,1.31-13.22,3.07-1.38,6-2.82,10-17.74,40.45-22,49.94c-2.16,4.84-4.06,8.7-5.43,11.32s-.07.2-.2.46c-1.18,2.22-1.83,3.47-1.83,3.47V370c-.92,1.64-1.9,3.21-2.36,3.21s-1-4.39.13-10.41c2.42-12.63,8.31-32.33,8.25-33.05,0-.33,1.11-3.8-3.8-5.56s-6.48,1.17-6.87,1.17-.72,1.05-.72,1.05,5.3-22.19-10.14-22.19c-9.69,0-23,10.54-29.65,20.16-4.19,2.29-13.1,7.14-22.52,12.31-3.6,2-7.33,4.06-10.87,5.95l-.72-.78c-18.72-20-53.34-34.1-51.9-60.94.52-9.75,3.93-35.47,66.5-66.63,51.25-25.53,92.29-18.52,99.42-2.94,10.15,22.25-21.92,63.62-75.2,69.57-20.29,2.29-31-5.56-33.64-8.51s-3.21-3.2-4.26-2.62c-1.7.92-.65,3.67,0,5.31,1.57,4.12,8.12,11.45,19.24,15.12,9.76,3.2,33.58,5,62.38-6.16,32.27-12.5,57.47-47.19,50.07-76.18-7.53-29.52-56.48-39.21-102.76-22.78-27.55,9.82-57.4,25.13-78.87,45.23C2.69,254.16-1.36,275,.34,283.62c6,30.82,48.43,50.92,65.45,65.78-.85.45-1.64.91-2.36,1.3-8.51,4.19-40.9,21.15-49,39.08-9.16,20.29,1.44,34.89,8.51,36.85,21.86,6.09,44.24-4.84,56.35-22.84s10.61-41.37,5-52l-.19-.39,6.67-3.93c4.32-2.55,8.58-4.91,12.31-6.94-2.1,5.7-3.6,12.44-4.39,22.26-.91,11.52,3.8,26.44,10,32.33,2.75,2.55,6,2.62,8,2.62,7.2,0,10.47-6,14.07-13.09,4.45-8.71,8.38-18.79,8.38-18.79s-4.91,27.3,8.51,27.3c4.91,0,9.81-6.35,12-9.62v.06s.13-.19.39-.65c.53-.79.79-1.25.79-1.25v-.13c2-3.4,6.35-11.19,12.89-24.08C182.3,340.82,190.41,320,190.41,320a120.66,120.66,0,0,0,3.21,13.48c1.44,5,4.58,10.41,7,15.71-2,2.75-3.14,4.32-3.14,4.32l.07.06c-1.57,2.1-3.34,4.32-5.17,6.55-6.68,8-14.67,17.08-15.71,19.7-1.25,3.08-1,5.37,1.44,7.2,1.76,1.31,4.91,1.57,8.24,1.31a36.88,36.88,0,0,0,12.31-2.81,42.68,42.68,0,0,0,10.6-5.57c6.55-4.84,10.54-11.71,10.15-20.88-.2-5-1.84-10-3.86-14.72.58-.86,1.17-1.71,1.76-2.62A276.65,276.65,0,0,0,235.64,310a120.45,120.45,0,0,0,3.21,13.49c1.24,4.25,3.73,8.9,6,13.48-9.68,7.92-15.77,17.08-17.87,23.1-3.86,11.13-.85,16.17,4.85,17.35,2.55.52,6.22-.66,9-1.83a40.67,40.67,0,0,0,11.33-5.83c6.54-4.84,12.83-11.58,12.5-20.68a39.92,39.92,0,0,0-2.81-12.24c8.24-3.41,18.91-5.37,32.46-3.73,29.13,3.4,34.89,21.6,33.77,29.19s-7.2,11.78-9.23,13.09-2.68,1.7-2.48,2.62c.26,1.37,1.18,1.31,2.94,1.05,2.42-.4,15.32-6.22,15.84-20.23.79-18-16.3-37.63-46.6-37.44ZM63.83,397.11c-9.63,10.54-23.17,14.53-28.93,11.13-6.22-3.6-3.8-19.12,8.05-30.31,7.2-6.8,16.56-13.09,22.71-16.95,1.37-.85,3.47-2.09,6-3.6a6.75,6.75,0,0,1,.65-.39c.46-.26,1-.59,1.51-.92,4.38,16,.19,30-10,41Zm70.36-47.85c-3.34,8.19-10.41,29.2-14.66,28-3.67-1-5.89-16.89-.72-32.6,2.61-7.92,8.18-17.34,11.45-21,5.3-5.89,11.06-7.85,12.5-5.43C144.46,321.38,136.28,344.16,134.19,349.26ZM192.24,377c-1.44.72-2.74,1.24-3.33.85s.59-1.25.59-1.25,7.26-7.79,10.14-11.39c1.64-2.09,3.6-4.51,5.69-7.26v.78C205.33,368.18,196.3,374.46,192.24,377ZM237,366.81c-1-.79-.91-3.21,2.62-10.8a40.62,40.62,0,0,1,10-12.83,16,16,0,0,1,1,5.63C250.5,360.59,242.12,365,237,366.81Z"/></g></g></svg>