<svg xmlns="http://www.w3.org/2000/svg" viewBox="0 0 255 224"><defs><style>.cls-1{fill:#8080f2;}.cls-2{fill:#4b32c3;}</style></defs><title>icon-eslint</title><g id="Layer_2" data-name="Layer 2"><g id="Layer_1-2" data-name="Layer 1"><path class="cls-1" d="M77.11,81.52l48.43-28a3.92,3.92,0,0,1,3.92,0l48.43,28a3.93,3.93,0,0,1,2,3.4v55.92a4,4,0,0,1-2,3.4l-48.43,28a3.92,3.92,0,0,1-3.92,0l-48.43-28a3.93,3.93,0,0,1-2-3.4V84.92a4,4,0,0,1,2-3.4"/><path class="cls-2" d="M253.42,107,195.56,6.32A12.2,12.2,0,0,0,185.37,0H69.63A12.2,12.2,0,0,0,59.44,6.33L1.58,106.77a11.94,11.94,0,0,0,0,11.88L59.44,218.5A11.44,11.44,0,0,0,69.63,224H185.37a11.36,11.36,0,0,0,10.19-5.45l57.86-100a11.31,11.31,0,0,0,0-11.54m-47.91,48.41a4.23,4.23,0,0,1-2.18,3.59l-73.71,42.52a4.19,4.19,0,0,1-4.17,0L51.69,159a4.23,4.23,0,0,1-2.18-3.59V70.35a4.24,4.24,0,0,1,2.16-3.59l73.71-42.52a4.15,4.15,0,0,1,4.17,0l73.77,42.52a4.27,4.27,0,0,1,2.19,3.59Z"/></g></g></svg>