<svg xmlns="http://www.w3.org/2000/svg" viewBox="0 0 27.62 23.93"><defs><style>.cls-1{fill:#47a3da;}</style></defs><title>icon-music</title><g id="Layer_2" data-name="Layer 2"><g id="Icons"><path class="cls-1" d="M27.5,9a4.23,4.23,0,0,0-2-2.9,13.22,13.22,0,0,1-4.3-4.8l-.4-.8A1,1,0,0,0,19.7,0a.81.81,0,0,0-.7.9v15.8a5.83,5.83,0,0,0-3-.8c-2.8,0-5,1.8-5,4s2.2,4,5,4,5-1.8,5-4V4.53a17.22,17.22,0,0,0,3.4,3.2,2.45,2.45,0,0,1,1.1,1.7,2.82,2.82,0,0,1-.4,2,1,1,0,0,0,1.7,1.1A4.43,4.43,0,0,0,27.5,9Z"/><path class="cls-1" d="M8,20.93H1a1,1,0,0,0,0,2H8a1,1,0,0,0,0-2Z"/><path class="cls-1" d="M8,15.93H1a1,1,0,0,0,0,2H8a1,1,0,0,0,0-2Z"/><path class="cls-1" d="M1,12.93H15a1,1,0,0,0,0-2H1a1,1,0,0,0,0,2Z"/><path class="cls-1" d="M1,7.93H15a.94.94,0,0,0,1-1,.94.94,0,0,0-1-1H1a.94.94,0,0,0-1,1A.94.94,0,0,0,1,7.93Z"/><path class="cls-1" d="M1,2.93H15a.94.94,0,0,0,1-1,.94.94,0,0,0-1-1H1a.94.94,0,0,0-1,1A.94.94,0,0,0,1,2.93Z"/></g></g></svg>