<svg xmlns="http://www.w3.org/2000/svg" viewBox="0 0 57.71 64"><defs><style>.cls-1{fill:#8ed6fb;}.cls-2{fill:#1c78c0;}</style></defs><title>icon-webpack</title><g id="Layer_2" data-name="Layer 2"><g id="Layer_1-2" data-name="Layer 1"><path class="cls-1" d="M55.93,49.33,30,64V52.57l16.16-8.89Zm1.78-1.61V17l-9.49,5.48V42.25ZM1.78,49.33,27.71,64V52.57L11.54,43.68ZM0,47.72V17l9.49,5.48V42.25ZM1.11,15.05,27.71,0V11L10.53,20.5Zm55.48,0L30,0V11l17.18,9.45Z"/><path class="cls-2" d="M27.71,50.47,11.76,41.7V24.33l16,9.21Zm2.28,0,16-8.76V24.33L30,33.54ZM12.84,22.32l16-8.79,16,8.8-16,9.24Z"/></g></g></svg>