<svg xmlns="http://www.w3.org/2000/svg" viewBox="0 0 524.43 466.11"><defs><style>.cls-1{fill:#e44d26;}.cls-2{fill:#f16529;}.cls-3{fill:#ebebeb;}.cls-4{fill:#fff;}.cls-5{fill:#8ed6fb;}.cls-6{fill:#1c78c0;}</style></defs><title>icon-html-webpack-plugin</title><g id="Layer_2" data-name="Layer 2"><g id="Layer_1-2" data-name="Layer 1"><path class="cls-1" d="M18.27,260.6,0,55.69H200.75L182.46,260.57l-82.21,22.79Z"/><path class="cls-2" d="M100.38,265.94l66.42-18.42L182.43,72.44H100.38Z"/><path class="cls-3" d="M100.38,148.44H67.12l-2.3-25.73h35.56V97.57h-63l.6,6.75,6.18,69.25h56.24Zm0,65.27-.12,0-28-7.56-1.79-20H45.26l3.52,39.46,51.48,14.29.12,0Z"/><path d="M18.68,0H31.45V12.62H43.13V0H55.9V38.21H43.13V25.42H31.45V38.21H18.68Zm54,12.67H61.46V0H96.72V12.67H85.47V38.21H72.7V12.67ZM102.32,0h13.32l8.19,13.43L132,0h13.32V38.21H132.61V19.27l-8.78,13.59h-.22l-8.8-13.59V38.21H102.32V0Zm49.37,0h12.77V25.58h18V38.21H151.69Z"/><path class="cls-4" d="M100.29,148.44v25.13h31l-2.92,32.6-28,7.56v26.15l51.52-14.28.38-4.25,5.9-66.16.62-6.75H100.29Zm0-50.87v25.14H161l.51-5.65,1.14-12.74.6-6.75Z"/><path class="cls-5" d="M517,226.84,407.7,288.64V240.52l68.06-37.45Zm7.48-6.76V90.87l-40,23.1V197Zm-235.56,6.76,109.23,61.8V240.52L330,203.06Zm-7.48-6.76V90.87l40,23.1V197Zm4.68-137.6,112-63.37V65.62l-72.36,39.82Zm233.66,0-112-63.37V65.62l72.35,39.78Z"/><path class="cls-6" d="M398.1,231.68l-67.17-37V121.58l67.17,38.78Zm9.6,0,67.17-36.92v-73.2l-67.17,38.8ZM335.48,113.12,402.9,76.07l67.42,37.06L402.9,152.05Z"/><path d="M246.32,326.52c-18.08,0-32.85,9-32.85,20.54s14.77,20.54,32.85,20.54,32.85-9,32.85-20.54-14.8-20.54-32.85-20.54Zm0,32.85c-14,0-24.64-6.56-24.64-12.31s10.68-12.31,24.64-12.31S271,341.31,271,347.06,260.28,359.37,246.32,359.37Z"/><path d="M342,330.61a12.84,12.84,0,0,0,2.87-8.62c0-11.49-14.77-20.54-32.85-20.54-9.45,0-17.64,2.47-23.39,6.16l-10.68-4.53a13.07,13.07,0,0,0,1.22-5.75c0-11.49-14.77-20.54-32.85-20.54s-32.84,9-32.84,20.54a14.5,14.5,0,0,0,1.22,5.75l-8.19,3.73a45,45,0,0,0-21.77-5.34c-18.07,0-32.85,9-32.85,20.55a16.63,16.63,0,0,0,2.06,7.39l-18.48,8.19v81.29l110.85,47.22,110.86-47.63V337.6l-15.18-7Zm-95.65,50.93-96.49-41.47L160.1,336a44.88,44.88,0,0,0,24.64,7c18.07,0,32.85-9,32.85-20.55A14.53,14.53,0,0,0,213.9,313l6.15-2.47c6.15,4.93,15.61,8.21,26.27,8.21s20.11-3.28,26.26-8.21l9.46,4.1a15.37,15.37,0,0,0-2.87,8.21c0,11.49,14.77,20.54,32.85,20.54,9,0,17.23-2.06,23-5.75l7.81,3.28-96.49,40.66ZM336.63,322c0,5.75-10.68,12.31-24.64,12.31s-24.63-6.56-24.63-12.31S298,309.69,312,309.69,336.63,316.25,336.63,322Zm-90.31-36.53c14,0,24.63,6.56,24.63,12.3s-10.67,12.31-24.63,12.31-24.64-6.56-24.64-12.31S232.36,285.46,246.32,285.46Zm-61.61,24.23c14,0,24.64,6.56,24.64,12.3s-10.68,12.31-24.64,12.31-24.63-6.56-24.63-12.31S170.78,309.69,184.71,309.69Zm-41,36.53,98.55,42.29v66.92l-98.55-42.29V346.22ZM250.41,455.45V388.53L349,346.25v66.92l-98.55,42.28Z"/></g></g></svg>