<svg xmlns="http://www.w3.org/2000/svg" viewBox="0 0 200.75 283.36"><defs><style>.cls-1{fill:#e44d26;}.cls-2{fill:#f16529;}.cls-3{fill:#ebebeb;}.cls-4{fill:#fff;}</style></defs><title>icon-html-loader</title><g id="Layer_2" data-name="Layer 2"><g id="Layer_1-2" data-name="Layer 1"><path class="cls-1" d="M18.27,260.6,0,55.69H200.75L182.46,260.57l-82.21,22.79Z"/><path class="cls-2" d="M100.38,265.94l66.42-18.42L182.43,72.44H100.38Z"/><path class="cls-3" d="M100.38,148.44H67.12l-2.3-25.73h35.56V97.57h-63l.6,6.75,6.18,69.25h56.24Zm0,65.27-.12,0-28-7.56-1.79-20H45.26l3.52,39.46,51.48,14.29.12,0Z"/><path d="M18.68,0H31.45V12.62H43.13V0H55.9V38.21H43.13V25.42H31.45V38.21H18.68Zm54,12.67H61.46V0H96.72V12.67H85.47V38.21H72.7V12.67ZM102.32,0h13.32l8.19,13.43L132,0h13.32V38.21H132.61V19.27l-8.78,13.59h-.22l-8.8-13.59V38.21H102.32V0Zm49.37,0h12.77V25.58h18V38.21H151.69Z"/><path class="cls-4" d="M100.29,148.44v25.13h31l-2.92,32.6-28,7.56v26.15l51.52-14.28.38-4.25,5.9-66.16.62-6.75H100.29Zm0-50.87v25.14H161l.51-5.65,1.14-12.74.6-6.75Z"/></g></g></svg>