<svg xmlns="http://www.w3.org/2000/svg" viewBox="0 0 187.96 266.71"><defs><style>.cls-1{fill:#264de4;}.cls-2{fill:#2965f1;}.cls-3{fill:#ebebeb;}.cls-4{fill:#fff;}</style></defs><title>icon-css-loader</title><g id="Layer_2" data-name="Layer 2"><g id="Layer_1-2" data-name="Layer 1"><path class="cls-1" d="M87.86,266.71,11.7,243.24,0,50.89l188,5.3L165.43,247.54,87.86,266.71Z"/><path class="cls-2" d="M151.12,234.91,170.37,71.39,93.54,69.23,88.43,250.4l62.69-15.49Z"/><path class="cls-3" d="M36.77,138.84l1.44,23.59,52.66,1.49.66-23.53ZM33.87,91.1l1.48,23.59,56.86,1.6.67-23.53-59-1.66ZM89.81,201.5l-.1,0-26-7.81L62.55,174.9l-23.62-.67,2.26,37L89,226l.11,0Z"/><path d="M45.71,0,74.2.8l-.33,11.92-16.58-.47L57,24.17l16.58.47L73.2,36.56l-28.5-.81Zm34.2,1,28.5.81-.3,10.36-16.58-.47-.06,2.08,16.58.46L107.38,38l-28.5-.8.31-10.89,16.58.47.06-2.07-16.58-.47L79.9,1Zm34.2,1,28.5.8-.3,10.36-16.58-.46-.06,2.07,16.59.47L141.58,39l-28.5-.8.31-10.88,16.58.46.06-2.07-16.58-.46.66-23.32Z"/><path class="cls-4" d="M146.15,141.93l5.59-47.51L92.8,92.76l-.67,23.53,33.16.93-2.82,24-31-.87-.66,23.53,29,.81-3.6,30.44-26.44,6.35L89,226l48.62-12,.46-4,7.28-61.79.75-6.3Z"/></g></g></svg>