<svg xmlns="http://www.w3.org/2000/svg" viewBox="0 0 462.99 418.98"><defs><style>.cls-1{fill:#8ed6fb;}.cls-2{fill:#1c78c0;}.cls-3{fill:#f9dc3e;}</style></defs><title>icon-babel-loader</title><g id="Layer_2" data-name="Layer 2"><g id="Layer_1-2" data-name="Layer 1"><path class="cls-1" d="M455.51,207.74l-109.25,61.8V221.42L414.32,184ZM463,201V71.76l-40,23.1v83.07Zm-235.56,6.77,109.23,61.8V221.42L268.56,184ZM220,201V71.76l40,23.1v83.07Zm4.68-137.6L336.66,0V46.51L264.31,86.34Zm233.66,0L346.26,0V46.51l72.36,39.78Z"/><path class="cls-2" d="M336.66,212.57,269.5,175.62V102.47l67.16,38.78Zm9.6,0,67.18-36.92V102.46l-67.18,38.79ZM274,94l67.42-37,67.42,37-67.42,38.91Z"/><path class="cls-3" d="M257.22,310.11l0,.43.89-.08a3.54,3.54,0,0,1,.27-1.24l-.08-.78C257.94,308.47,257.57,309,257.22,310.11Zm-8.51-20.46-.08-.78-1.26.11.08.78ZM224,335.87c-.05-.73-2.31-3.56-6.78-8.54-.08-.91,1.45-2.28,4.6-4.09l9-7.83c2-2.56,3.2-6.7,3.55-12.46l-.1-1.32c-.35-4-3.23-7.19-8.7-9.63-3.23-2.18-9-3.4-17.44-3.61q-10.41.89-27.18,7.45a111.82,111.82,0,0,1-10.5,6.63l.06.67a2.51,2.51,0,0,0,1.05-.46.6.6,0,0,1,.75.59l.67-.35.33,0,0,.29c0,.35-2.39,2.26-7.29,5.68l.38.7-.33,0-.8-.3c0,.24-.33.41-1,.46l0,.29.78,1a2.88,2.88,0,0,1-1.13-.27,5.45,5.45,0,0,0-3.34,1.83l.46-2a162.61,162.61,0,0,0,3.36-18.78l-.08-.35a13.92,13.92,0,0,1-3.26-3,9.71,9.71,0,0,0,0-1.43l-.08-.3-.32.08q-5.32,8-20.53,27.3-11.59,13.73-11.95,15.26c-3.15,3.25-4.66,5.22-4.5,5.89-.83.54-1.18,1.08-1,1.67a.34.34,0,0,1-.46-.27,9.14,9.14,0,0,1-6,4.2l-2.8.64a.69.69,0,0,0-.54.81l.09.35,1-.24.09.29-2.37.92-4.2,1-2.21.13c-.32.33,1.75,0,.94.16l-2.74.65c-1.67.38-2.59.24-2.75-.43l-.32.08a1.71,1.71,0,0,1,0,.7l-.16-.67-2.21.51q-.24-1.53-8.94-11.14-.15-1.86,6.11-5.39l11.79-10.36q4-5.08,4.71-16.31l-.16-1.75c-.46-5.27-4.28-9.52-11.47-12.81-4.25-2.88-11.89-4.41-22.93-4.65Q63.52,284.45,41.45,293a135.83,135.83,0,0,1-13.81,8.72l.08.92a3.7,3.7,0,0,0,1.37-.54.77.77,0,0,1,1,.75l.92-.51.46,0,0,.43c0,.43-3.17,2.94-9.66,7.51l.51.81-.46,0-1-.35c0,.27-.43.46-1.37.54l.05.48,1.08,1.18a4,4,0,0,1-1.46-.29c-2.1.19-4.14,1.69-6.16,4.55l.51.8c1.75-1.61,2.77-2.42,3.07-2.44l.11,1.31a4.6,4.6,0,0,0-1.38.54l1.11,1.67a36.29,36.29,0,0,1,7-5.89c1.27.32,1.94.72,2,1.15l1-.08A75.11,75.11,0,0,1,47,303.11l.08.92c-1.26,1.88-2.12,2.85-2.58,2.9a3,3,0,0,0,.67,1.7q.17,1.74-9.26,23.39Q14.56,382.32,0,406.41a3.19,3.19,0,0,0,.57,1.29A12.17,12.17,0,0,0,5.11,406l.52-.06.08.92.88-.08.92-.51c0,.26.32.4.94.35l.08.91c.08.89-.43,2.23-1.51,4.09-1,1.11-2,3.42-3.12,6.95l0,.43.89-.08a57,57,0,0,0,8.83-12.73c11.3-3.32,19.91-6.57,25.89-9.77q9-.78,13.7-4.71l-.06-.49-2.26.67-.51.06,0-.49c4.41-.67,7.45-1.64,9.15-3Q72.38,378.52,79,374.38c9-6.62,14.88-13.08,17.54-19.35l1.51-.35a18.73,18.73,0,0,0,2.15-.14c0-.24.06-.37.3-.43,2-.21,1,.14,2.34-.16l3.39-.78.57-.13-.27.16a3.35,3.35,0,0,0,1.24-.08l.24,1L92.56,378.63l-3.42,4.28-1.67,5.6.32-.08,1.67-.7-.54,2.18.17.64.45.57c-.21.05-.29.19-.24.43l.08.35.7-.16c1-.89,1.45-1.7,1.29-2.42a6.26,6.26,0,0,0,2.21.16l.08.35c-.67.16-1,.7-1.08,1.61l.09.35.37-.08c5.6-6.11,19.33-27,30.33-41.2-.35-1.54,5.39-3.66,17.23-6.41L141,344q.65,2.79-2.75,13.48c-1.45,4.31-2.15,6.68-2,7.06-1.89,5.73-2.78,8.82-2.67,9.31l-4.2,13.75a125,125,0,0,0-6.24,22.26,2.73,2.73,0,0,1,1.16.11l.59-.51c0,.24.21.32.45.26l-.24-1,1.83-.06c.54-.13,1-.8,1.38-2-.09-1.86.29-2.85,1.13-3.07,1.13-4.41,1.83-6.62,2.07-6.7q1.58-6.58,2.34-7.51c1.59-5.71,2.74-8.64,3.5-8.83l.16.7-1.16,3a147.35,147.35,0,0,1-6.13,21.24l.59,2.58.38-.08q7.5-16.16,21.61-64a8.32,8.32,0,0,1,4-6.51l-.54-.57-.08-.29a3.74,3.74,0,0,0,2.26-1.27c0-.24-1-.59-2.83-1.08l4.69-20.07a6.77,6.77,0,0,1,1.8-1.4l.08,1a2.51,2.51,0,0,0-1,.46l.89,1.26a28.81,28.81,0,0,1,5.27-4.52c1,.27,1.46.59,1.51.92l.7-.06a57.28,57.28,0,0,1,15.69-8.4l.06.68c-.95,1.42-1.59,2.15-1.94,2.18a3,3,0,0,0,.43,1.29q.12,1.33-7,17.79-16.23,38.15-27.27,56.47a2.51,2.51,0,0,0,.49,1,8.78,8.78,0,0,0,3.42-1.32l.32,0,0,.67.76-.06.67-.35c0,.19.27.27.73.25l.05.72a6.1,6.1,0,0,1-1.16,3.07,15.43,15.43,0,0,0-2.45,5.25l0,.35.7-.05a42.77,42.77,0,0,0,6.7-9.69c8.59-2.53,15.13-5,19.65-7.4,4.6-.41,8.07-1.59,10.44-3.58l0-.35-1.74.51-.38,0,0-.35c3.34-.48,5.68-1.23,7-2.23q9.76-7.52,14.77-10.68C219.78,350.1,224.62,342.84,224,335.87Zm-1.77.45.24,2.72c-.32.67-.67,1-1,1l-.4-4.63C221.85,335.73,222.23,336,222.26,336.32Zm-203.8-21.9-.45,0-.09-.83,1.86-.16,0,.43A3.5,3.5,0,0,0,18.46,314.42ZM9.39,405.14a5.79,5.79,0,0,0-2.88-.59l-.1-1.32c-.06-.51.24-.86.88-1s1,.37,1,1.23a19,19,0,0,1,2.58-2.9l1,.4c-.32,2.69-1.16,4.06-2.48,4.17Zm96.92-101.38c-.46.05-1.37-1.38-2.69-4.2l-.08-.84c.86-.08,1.75,1.32,2.69,4.2Zm-1.29-10-.38.89-13.16-5.49c8.77.29,13.3,1.83,13.54,4.6ZM49.44,341.44l-1.86.16-.08-.84,1.86-.16Zm-1.51-28.67.46,0,.11,1.32c-.43,0-1,.67-1.7,1.91l-.08-.92c.84-1,1.27-1.75,1.21-2.29ZM44,322l.16,1.75-.45,0L43.57,322Zm-2,3.28.88-.08c-.08,1.45-.48,2.23-1.21,2.29l-.45,0a4.32,4.32,0,0,0,.78-2.24Zm-1.54,4.58.51-.06,0,.43-.83,1.4-.89.08,0-.43A1.16,1.16,0,0,0,40.45,329.84ZM38.94,334l-.26,2.21-.46,0L38,334l.91-.06ZM23.85,376.88q-.9,4.53-1.92,4.6l0-.43a4.81,4.81,0,0,1,1.94-4.17Zm-2.78,6,0,.44c0,.59-.21.94-.81,1l0-.43C20.21,383.34,20.48,383,21.07,382.88Zm-.8,12.47,1.4-.14,0,.49a3.48,3.48,0,0,0-1.37.53l-.89.08c-.05-.45.24-.8.81-1Zm39.83-12.3c-7.86,3.87-12.49,6.51-13.86,7.88q-12.77,4.44-12.65,5.52A138.31,138.31,0,0,0,18.65,403a5.53,5.53,0,0,1-2.45-.65,4,4,0,0,1,2.05-3.77,7.91,7.91,0,0,1,3.79.59,37.41,37.41,0,0,1,7.32-2.39l-.08-.92-2.8.25c.35-.49,3-1.75,8.1-3.8l1.4-.13,0,.43c-2.39.21-3.71.91-4,2.18,0,.56.38.8,1,.75,1.8-1.13,2.69-1.8,2.66-2q5.13-1,28.34-14.83l.09.83c0,.41-1.3,1.54-4,3.48Zm-23.74,7.8a9.14,9.14,0,0,0,5.81-2.69c.65-.05,1,.19,1,.75-1.11.11-3.23,1-6.33,2.8l-.46,0,0-.89Zm38.3-29.42-11.87,9.42c-8.83,5.79-13.56,8.7-14.26,8.75q-21.08,11.59-26.19,12l-.51.06q.65-2.38,18.78-38.44,8-.69,25.17-7.45l2.8-.25c5.78-.51,10.12.62,13,3.32l.16,1.74c-2.13,6.17-4.49,9.77-7,10.82Zm-23.2-13.05,1.91-.16,0,.43-1.91.16Zm26.83-4.55,1.4-.13c1.29.62,2,1.15,2,1.64l0,.43c-1.24.11-2.4-.54-3.45-1.94Zm3.8-21.61c-1.24,1.48-4.63,4-10.18,7.56-1.83.16-8.64,2.8-20.42,8a3.68,3.68,0,0,0-1.89-.32l-.08-.84c-.13-1.69.62-3.82,2.29-6.4.91-4.85,1.91-7.62,3-8.29l9.83-22.1q-.16-2.06,6.3-3.15l1.39-.13.11,1.26c4.23-.64,6.87-1,7.89-1.1q11.7-1,12.19,4.71l.89-.08-.19-2.24,1-.08c2.29,1.27,3.52,2.8,3.69,4.61.1,1.23-.57,2.77-2,4.6-.59.05-.94-.38-1-1.24l-1,.08-.22,2.69c-3.95,5.92-6.83,9-8.61,9.13C83.49,321.09,82.49,322.19,82.09,322.22Zm6,15.48a3.57,3.57,0,0,0-1.94-.76l-.11-1.32.89-.08,2,1.16a.78.78,0,0,1-.8,1Zm6.24,7.4c.86.35,1.37.72,1.48,1.07l-.43.11,0,0a1.28,1.28,0,0,0-.27.05l-.65.51Zm.59,3.71-.08-.35,1.13-.27.08.35Zm2.72,3c1.16-.19,1.72-.27,3.88-.75l.08.35-4.09.94c0-.19.1-.38.13-.54Zm4,1.7a17.34,17.34,0,0,0-4.09.56l-.08-.35,3.45-1.1,1.64-.38.16.65c-.75.16-.21.16-1.08.62Zm3.64-.86a.75.75,0,0,1-.92-.54l1-.24a.64.64,0,0,1,.86.53Zm9.85-10.61-.08-.35,1.69-.4.16.65Zm10.52,64.54a2.48,2.48,0,0,0,.08-1.07l.38-.08a.59.59,0,0,1,.83.48l.08.35ZM133,344.85l-.76-.13a21.8,21.8,0,0,1-3.07,1l-.7.16a.68.68,0,0,1-.88-.48l4.92-1.13,1.62-.75.53.62A3.6,3.6,0,0,0,133,344.85Zm3.79-1.21-.08-.35a2,2,0,0,0,.92-.59l3.49-.81.08.35A28,28,0,0,0,136.83,343.64Zm.54-7.07a2.69,2.69,0,0,0-1,.59c-.05-.24-.54-.24-1.45,0-.16-.67,2.42-1.61,7.78-2.85l.75-.16.16.64C139.87,335.87,137.77,336.48,137.37,336.57Zm9.42-10.18c-.38,4.28-1.88,6.7-4.55,7.32l-.08-.35-2.37.92-1,.24a2.62,2.62,0,0,1-1.45,0l-.22-.94q-.12-.53,10.28-14.18l.81.13C148.46,320.74,148,323,146.79,326.39Zm16.66-14.26-.32,0-.06-.67,1.4-.13,0,.35a4.51,4.51,0,0,0-1.05.43Zm-6.86,68.92a4.46,4.46,0,0,0-2.16-.48l-.08-1c0-.35.19-.6.65-.73s.72.27.78,1a11.52,11.52,0,0,1,1.94-2.23l.72.29c-.27,2-.89,3.12-1.85,3.2Zm73.58-77c-.35,0-1-1.05-2.07-3.23l-.06-.67c.68-.06,1.38,1,2.08,3.15Zm-1-7.7-.32.7-10-4.17C225.57,293.13,229,294.28,229.2,296.38ZM187,332.64l-1.4.13,0-.67,1.4-.14Zm-1.16-21.78.38,0,.08,1c-.35,0-.78.51-1.29,1.45l0-.67a3.05,3.05,0,0,0,.88-1.78Zm-2.93,7,.11,1.32-.38,0-.11-1.32Zm-1.59,2.5.7-.05c-.08,1.13-.37,1.72-.89,1.78l-.37,0a3.61,3.61,0,0,0,.56-1.75Zm-1.13,3.45.33,0,0,.35-.62,1.08-.7.05,0-.35c.72-.05,1.05-.43,1-1.1ZM179,326.93l-.24,1.72-.32,0-.14-1.7.7-.05Zm-11.49,32.65c-.46,2.26-.94,3.41-1.45,3.47l0-.3A3.84,3.84,0,0,1,167.54,359.58Zm-2.13,4.55,0,.29a.62.62,0,0,1-.65.78l0-.35C164.74,364.5,165,364.26,165.41,364.13Zm-.59,9.47,1.08-.08,0,.35a3.13,3.13,0,0,0-1.05.4l-.7.06C164.15,374,164.36,373.71,164.82,373.6Zm30.23-9.34c-5.92,2.93-9.45,4.93-10.55,5.95q-9.69,3.39-9.61,4.22a102.23,102.23,0,0,0-11.28,5,4.12,4.12,0,0,1-1.86-.51,2.88,2.88,0,0,1,1.56-2.8,6.13,6.13,0,0,1,2.88.43,31.1,31.1,0,0,1,5.58-1.8l-.06-.67-2.18.18c.27-.37,2.34-1.34,6.19-2.9l1.08-.08,0,.29c-1.83.17-2.86.7-3.07,1.67a.58.58,0,0,0,.75.59c1.35-.88,2-1.4,2-1.56q3.88-.67,21.51-11.27l.05.67c0,.27-1,1.13-3,2.61Zm-18,5.92a7.2,7.2,0,0,0,4.47-2c.46,0,.73.16.76.59a17.6,17.6,0,0,0-4.8,2.05l-.37,0-.06-.65Zm29.12-22.36-9,7.21c-6.7,4.39-10.33,6.59-10.9,6.65q-16,8.79-19.89,9.12l-.37,0q.48-1.81,14.29-29.18,6-.52,19.08-5.7l2.18-.19c4.39-.38,7.67.48,9.82,2.55l.11,1.32c-1.64,4.63-3.42,7.35-5.36,8.19Zm-17.6-9.91,1.4-.13,0,.35-1.4.13Zm20.38-3.47,1.07-.08c1,.48,1.51.91,1.54,1.26l0,.3a3,3,0,0,1-2.63-1.48Zm2.82-16.39c-.94,1.13-3.5,3.07-7.67,5.76q-2.1.19-15.5,6a3.52,3.52,0,0,0-1.43-.19l0-.67q-.17-1.93,1.7-4.87c.69-3.72,1.48-5.79,2.28-6.27l7.51-16.8c-.08-1,1.51-1.8,4.74-2.42l1.08-.08.08,1q4.75-.76,6-.89c5.92-.51,9,.68,9.26,3.58l.7-.05-.14-1.62.7-.05c1.73.94,2.64,2.07,2.75,3.42a5.52,5.52,0,0,1-1.43,3.52c-.45.06-.72-.26-.78-1l-.7,0-.21,2q-4.49,6.82-6.54,7c-1.21,1.64-2,2.47-2.32,2.5Zm3.15,11.19-.08-1,.7-.05,1.51.91a.64.64,0,0,1-.65.73,2.86,2.86,0,0,0-1.48-.57ZM89.6,394.62l-.7.16-.6.51a.62.62,0,0,0,.84.49c.46-.11.65-.38.54-.81Zm-2.67-5.3.08.35c.46-.11.65-.38.54-.81l-.08-.35A.64.64,0,0,0,86.93,389.32ZM106,353.52l.51-.32a.72.72,0,0,1-.27-.06.31.31,0,0,0-.24.38Zm-.11-9.28.81-.19-.16-.7-.81.19Zm190.2,27.18-1.83-.22-.32.7,0,.35,10.9-.91-.06-.67Zm10-.84,0,.68h.11l-.05-.68Zm45.73-6,.05.67,1.18.22-.05-.67Zm-1.67.13c-8.18,1.83-9.21,1.51-10.93,1.65l.05.67L340,367l.4,0-.11-.08.89-.35c8.1-.89,9-.57,9-1.48l0-.33ZM301,352.85l-.73-.24a11.94,11.94,0,0,0-.86,2.8l0,.29c.56,0,1.08-1,1.56-2.85Zm-9.85-5.3,0-.35-.37,0-.68.43.38.65c.51-.05.75-.3.7-.75Zm21.4,22.12-.06-.67-.21,0,.05.68Zm44.4-10,.52-.06c.29,0,.43-.27.4-.7l-.3-.64a8.72,8.72,0,0,0-4.22,1.07l0-.35-2.23.22c-.06-.67-.25-1-.54-1l-1.16.11c-1.34.11-2,.06-2.66.57,0-.25-.11-.35-.25-.35l-1.29.1-.75.44c0-.25-.11-.35-.24-.35l-.46.4,0-.35-1.8-.14-.43,0,.05.67.92.25.86-.06a1.52,1.52,0,0,0,1,.22l.76-.38,0,.3A53.78,53.78,0,0,1,338,361a1.22,1.22,0,0,0-.73-.29l-.05.05a.58.58,0,0,1-.54-.59l1.51-.19a9.12,9.12,0,0,0,1,.27c1.21-.59,1.27-.83,1.91-.89l-.05-.67c-4.15.81-2.48.27-7.67.73l-.24,0-.06-.67c6.68-.81,4.44-.35,6.73-1,0,.25.11.35.24.35a1.55,1.55,0,0,1,.92-.45l.45,0c2.35-.19,3.13.27,7.76-1l0,.29.76-.37.7-.06c-.06-.67,1-.78,1.32-.81l-.06-.72c-8.13,1.64-10.25,1.18-12.51,1.83l0-.3a9.37,9.37,0,0,1-2.75.24,1.54,1.54,0,0,0-.67.43c0-.24-.11-.35-.27-.35a.4.4,0,0,0-.13,0L328.65,358c0-.19-.11-.29-.27-.27-3.58.76-2.61.89-7.4,1.32a2.35,2.35,0,0,0-.89.38.3.3,0,0,0-.38-.27l-2.93.24-2,.49c0-.19-.13-.3-.37-.27a17,17,0,0,1-2.86.54h-.05c-.48.05.24-.14-.13-.3l-.6.35c-.86.08-.4-.05-3.36,0-5.2.65-4.63.73-5.2.76l-1.93-.14a.27.27,0,0,1-.3.32c-2.21-.29-3.34-.64-3.36-1.05.29-2.09.8-3.17,1.53-3.23l.38,0-.33.7.38,0c.7-.38,1-.73,1-1.05l-.06-.73-.7.06-.05-.67a2.45,2.45,0,0,1,.22-1.35l1.58-2.56.06.68.75-.06-.05-.67-.43-.62a2.78,2.78,0,0,1,1.34-.78l0-.35-1,.08-.08-1c2.05-4.25,3-6.73,3-7.43l.73.3c.46,0,.67-.3.64-.79l-.7.06,0-.3a2.46,2.46,0,0,1,.27-1.42,4.51,4.51,0,0,0,1.5-3.53c.22,0,.33.08.35.32.95-.53,1.67-2,2.21-4.33q2.51-4.52,7.13-18.06c5.92-15.93,5.68-17.63,6.52-21.4l-.7.06a2.5,2.5,0,0,1-.27,1.37,2.71,2.71,0,0,0-1.13-.27l0-.29a8.19,8.19,0,0,1,1.75-5l.32,0,.59,2.31.7,0a24.71,24.71,0,0,1,.54-2.78c0-.34-.29-.56-.83-.59L323,287a35.75,35.75,0,0,1,.05-3.76l-.35,0a2.64,2.64,0,0,1-.92-1.48l-3.84.38a4,4,0,0,0-.43-1.19c0-.35.83-.7,2.61-1l.78.29.72-.43c0,.24.16.35.43.32l.73-.43c0,.25.16.35.43.33l.35,0-.05-.78c-.54.05-2,.05-4.23,0l-.73.49,0-.43c-18.06,1.48-28.32,2.31-30.76,2.55-.33,0-1.59,0-3.83-.05,0,.29-.24.46-.78.51l-.78-.35-2.64.67a16.91,16.91,0,0,1-3.12-.13,2.67,2.67,0,0,1-1.48.56c-.32,0,3.85-.21,7.73-.48a3.6,3.6,0,0,1-1.89.59,2.62,2.62,0,0,1-1.53-.27,43.71,43.71,0,0,1-5.71,1.35l-.78-.3-12.59,1.94a3.22,3.22,0,0,0-1.7-.27,20.72,20.72,0,0,0-3.36.73l-6.09,2.53.46.75a3.47,3.47,0,0,0,1.24-.48l2.15.18-.27,2a5.42,5.42,0,0,0-3.47,3.88c-3,1.32-4.47,2.26-4.47,2.82l0,.35.46,0,.81-.43.94,1.13.13,1.56c.06.48-5,11.06-15,31.73-8.72,19.92-13.3,30.82-13.73,32.78-3,.84-4.71,2.05-5.22,3.66,0,.51.94.86,2.66,1l.09.78-.79,1.29.14,1.56q.12,1.21,6.54,1.86c0-.27.11-.43.4-.46a23.93,23.93,0,0,1-.8,5.65l.45,0c1.78-2.43,2.61-4.1,2.53-5l.38,0c.43,0,.89.46,1.43,1.51q-.81.31-5.66,12.86l.46.76.46,0c4-10,6.43-15.56,7.45-16.6q7.8-.69,27-2.75l.8-.48a.39.39,0,0,0,.49.37l.83-.08.81-.48a.38.38,0,0,0,.48.37L269,370c2.55-.22,3.76-1,3.66-2.32,0-.35,1.48-.75,4.52-1.18a3.62,3.62,0,0,1,1.32.24c0-.24,1.5-.48,4.57-.75.08-1.62.59-2.48,1.51-2.56l-.08-.78a13.71,13.71,0,0,0-3,.67,17.7,17.7,0,0,1-3.85-.45,3.69,3.69,0,0,1-1.24.48l-6.73.22-.8.43c0-.24-.19-.35-.49-.33l-.38,0-.86.43c0-.24-.72-.43-2.12-.62l-.86.51-1.67.14,0-.43c8.67-.94,13-2.13,12.84-3.53a.75.75,0,0,1,.91.78l2.53-.64-.08-.78-20.75.56c0,.27-.11.43-.4.46l-2.53-.22a3.14,3.14,0,0,0-1.62.57l-.94-.35a28.67,28.67,0,0,0-5.84.94,37.11,37.11,0,0,0-5.92.08l-4.66.41-2.15-.25q-.16-2.05,8.05-20.24c1.59-4.09,3-6.64,4.44-7.61a3.15,3.15,0,0,1,1.32.32l3.31-1.13,1.69.27a38.66,38.66,0,0,0,10-2.45,4.59,4.59,0,0,1,2.15.19l2.53-.59,7.54-.65a49.93,49.93,0,0,0,10.44-2.13l-.08-.78c-1.4.14-2.12-.1-2.18-.67-.08-1.05-1.1-1.48-3.07-1.32l-.08-.78,2.08-.59,5.43-.46-.08-.78c-.21,0-1.32,0-3.36-.08l-.08-.83,2.1-.19c.56-.06.8-.32.75-.86-2.83.08-4.25-.06-4.28-.43q-29.55,1.45-29.63.53a3.5,3.5,0,0,0-1.24.54l-.51-.8q7.83-16.63,9.18-16.77a5,5,0,0,1-.65,2.07l0,.35.83-.08c2.07-4.95,3.82-7.51,5.28-7.62,6.19-.54-.87-.94,12.38-3a2.53,2.53,0,0,0,1.18.32q7.8-1.57,21.72-3.28l-.05-.78-5,.45-.05-.78a2.67,2.67,0,0,0,1.48-.56l0,.43a3.05,3.05,0,0,0,1.13-.54,3.54,3.54,0,0,1,2,.24,30.23,30.23,0,0,1,4.15-.83l3.09-.3c.76-.48,1.11-.91,1.08-1.32l0-.35a9.38,9.38,0,0,1-2.72-.16.8.8,0,0,1,.7-.86l5.76-.54,2.64-.67c0,.3.16.4.38.4a2.84,2.84,0,0,0,1.13-.53c.13,0,.29,0,.43,0a22.38,22.38,0,0,0-1.16,3.15l-.75.05a3.39,3.39,0,0,0-.43-1.37l-.38,0c-7,19.48-10.12,28.55-16.58,43.52-1.18,3.82-2.18,5.95-3,6.4a.59.59,0,0,0,.75.59,9.41,9.41,0,0,1-1.31,5.58c-3,8.61-5,13.32-6,14.18l.68,4.06a.64.64,0,0,1-.65.73l-.7.05c-.11-1.13-.51-1.66-1.24-1.58l-.37,0a16,16,0,0,0-2.08,5l.7-.05a2.32,2.32,0,0,0,1.29-2.18l1.4-.14.81.3a4.39,4.39,0,0,0-.89,2.45l.38.65-.91,2.15,0,.35a4.41,4.41,0,0,1,2.64.75,4.68,4.68,0,0,0,2.13-.86c.8-.08,3.82-.11,9-.11l2.61-.89a59.55,59.55,0,0,0,6.44-.18l1.13-.11.59-.41,0,.35a17.7,17.7,0,0,1,5.33.22l0,.35-1.59.13.06.68a2.3,2.3,0,0,0,1.26-.49c.41,0,.65.19.67.68a9.3,9.3,0,0,0-2.18.48l-.7-.24c-1.1.29-.86.37-1.61.43l-1.1-.22a.27.27,0,0,1-.27.33.58.58,0,0,0,.67.62l1.13-.11,5.89-.51,2.24-.49c0,.19.11.3.29.27l1.08-.4,2-.16c1.56-.14,1.53-.25,4.92-.78,0-.22.06-.3.22-.33l0,.3c5.51-.94,5.86-1,6.75-1.29l.08.16c1.38-.33.6-.24,1-.51,0,.24.11.35.24.35l1-.08,0-.73-2,0,0-.05a1.74,1.74,0,0,1-.22.05h-.27v.06a10.15,10.15,0,0,1-2.2.16l-4.93.27,0-.35,2.75-.38,1-.08.56-.4,0,.35c3.87-.33,5.25.64,23.17-3.18,1-.08.89-.89,1.51-2.56a1.63,1.63,0,0,1-.94-.21c-1.48.56-2.27.29-5.12.75-.24,0-.43-.19-.51-.62l0-.29,2.75.08a7.12,7.12,0,0,0,3-1c0,.24-.57.37-.25.35Zm-132.52,2.12-1.27.11c0-.51.62-2.45,2-5.76l.84-.08a22.5,22.5,0,0,1-1.59,5.73Zm1.53-6.13,0-.35c0-.43.24-.73.83-.86l0,.35C226.8,355.3,226.54,355.59,225.94,355.65Zm16.82,13,0,.35-2.1.19,0-.35Zm-2.53-.22c0,.43-.61.92-2,1.4l-2.59-.19-.83.08-.08-.78,5.51-.51Zm17-78.29-1.26.11,0-.43c0-.44.22-.73.76-.87l.45,0,.86.35c0,.51-.21.8-.78.86Zm19.25-3.77.4,0,.06.78-1.16.11c0-.43.19-.72.7-.86Zm-4.85,1.7-1.91-.22,0-.35a20.53,20.53,0,0,0,4.87-.91c0,.29.29.4.78.35l.05.78-.75.08a2.65,2.65,0,0,1-1.54-.27A3.4,3.4,0,0,1,271.64,288.07Zm2.4,7,0-.35,3.1-.3,0,.35Zm3.31-2.69,0-.44,1.51-.13,0,.43Zm.35-5.28-.4,0,.35-.84,3.44-.32,0,.43a20.32,20.32,0,0,0-3.42.7Zm1.75,7.43-.06-.78,1.51-.14c.51-.05.78.19.81.73Zm9.12-12.44-1.94.54-.35,0a20.25,20.25,0,0,1-3.49-.08C285.29,282.39,287.68,282.2,288.57,282.06Zm-2.07,8.62,0,.35-2.67.24,0-.35Zm4.36,2.07c0-.32-.54-.54-1.59-.65l-2.66.76-2.05.08c-.46-.33-.7-.54-.72-.7l2.36.13,5.33-.86,2.72.11,0,.43a15.1,15.1,0,0,0-3.42.7Zm27.43-7.08c.32,0,.53,0,.61,0a10.55,10.55,0,0,1,3.21-2.16q-1.46,6.39-4.55,9.45l-1.51-.91a49.71,49.71,0,0,0,2.24-6.41Zm-4.63,7.94.37,0c-.51,1-1,1.48-1.34,1.51l-.08-1A2.28,2.28,0,0,0,313.66,293.61Zm-3,7.13c.73-2.9,1.43-4.55,2.07-5l0,.35c-.38,2.69-1,4.12-1.75,4.23l.13,1.69a3.84,3.84,0,0,0-.91,2.16l-.38,0-.21-2.34c.43-.05.78-.43,1-1.13Zm-1.16,3.88a9.72,9.72,0,0,1-.78,2.8l-.38,0-.08-1c.51-1.18,1-1.77,1.24-1.8Zm-21.72,63,0-.3.7-.05.09,1c-.38,0-.65-.18-.76-.67Zm31,.81c0-.24-.13-.35-.37-.32l-1.75.16,0-.35h.16l4.15-.35,0,.35A3.62,3.62,0,0,0,318.82,368.46Zm-2.07-.86c.16.08.08.16,0,.21S316.56,367.7,316.75,367.6Zm.22-4.85-2.32.19,0-.35,2.09-.19,1.83-.45c0,.21.14.29.38.26,2.18-.37,2-.48,3-.56.35,0,.56.19.59.62l-5.57.48Zm8.1-.7a9.45,9.45,0,0,0-2.29-.16l0-.29,2.08-.19,0,.29c-.21,0,.57.08.22.35Zm.16-.37,0-.3,1.13-.11,0,.3Zm2.5-.22,0-.3a1.9,1.9,0,0,0,.8-.43.81.81,0,0,1,.92.76l-1.7,0Zm3.21-.4,0-.35,1.37-.11,0,.35Zm1.91-.16c0-.41.13-.65.48-.7l.46.59a.25.25,0,0,1,.21-.33l.35.65-1.5-.21Zm26.48-3.13,0,0v0S359.33,357.75,359.33,357.77Zm.48-.35c.22-.13.33-.27-.18-.35-.25.27.26.35-.27.38l0,.24.3-.21-.3.24v0l-.56.72,1.13-.4h.13l-.05-.67-.22,0Zm2,1.54-.22,0,.06.68,1.59-.14c0-.43-1.08-.56-1.43-.56Z"/></g></g></svg>